<?xml version="1.0" ?><!DOCTYPE svg  PUBLIC '-//W3C//DTD SVG 1.1//EN'  'http://www.w3.org/Graphics/SVG/1.1/DTD/svg11.dtd'><svg enable-background="new 0 0 32 32" height="32px" version="1.1" viewBox="0 0 32 32" width="32px" xml:space="preserve" xmlns="http://www.w3.org/2000/svg" xmlns:xlink="http://www.w3.org/1999/xlink"><g id="amazon"><path d="M16.265,9.549c-1.584,0.201-2.918,0.531-4.002,0.993c-1.183,0.501-2.116,1.244-2.798,2.227   c-0.682,0.983-1.023,2.167-1.023,3.55c0,1.745,0.497,3.094,1.49,4.047c0.993,0.953,2.262,1.43,3.806,1.43   c1.003,0,1.845-0.101,2.527-0.301c1.083-0.301,2.187-1.063,3.31-2.287c0.081,0.101,0.221,0.296,0.421,0.587   c0.201,0.291,0.346,0.486,0.437,0.586c0.09,0.101,0.24,0.261,0.451,0.481c0.21,0.221,0.457,0.452,0.737,0.692   c0.341,0.14,0.632,0.12,0.873-0.061c0.14-0.12,1.043-0.902,2.708-2.347c0.161-0.121,0.241-0.261,0.241-0.421   c0-0.14-0.06-0.301-0.18-0.481c-0.321-0.421-0.552-0.727-0.692-0.917c-0.141-0.19-0.286-0.501-0.437-0.933   c-0.15-0.431-0.226-0.907-0.226-1.429V7.683c0-0.08-0.01-0.336-0.03-0.767s-0.05-0.712-0.09-0.843c-0.04-0.13-0.1-0.366-0.18-0.707   c-0.081-0.341-0.171-0.602-0.271-0.782c-0.101-0.18-0.236-0.386-0.406-0.617c-0.169-0.229-0.355-0.445-0.557-0.647   c-1.284-1.184-3.069-1.775-5.355-1.775h-0.752c-1.785,0.101-3.345,0.582-4.679,1.444c-1.334,0.863-2.171,2.187-2.512,3.972   c-0.02,0.081-0.03,0.15-0.03,0.211c0,0.281,0.17,0.461,0.511,0.542l3.46,0.421c0.321-0.06,0.521-0.291,0.602-0.692   c0.141-0.642,0.452-1.143,0.933-1.504c0.481-0.361,1.053-0.572,1.715-0.632h0.241c0.903,0,1.564,0.301,1.986,0.903   c0.281,0.441,0.421,1.304,0.421,2.587v0.512C17.689,9.408,16.807,9.488,16.265,9.549z M18.913,12.889   c0,0.642-0.005,1.103-0.015,1.384c-0.01,0.281-0.07,0.647-0.181,1.098c-0.11,0.452-0.276,0.868-0.497,1.249   c-0.461,0.862-1.113,1.404-1.956,1.625c-0.04,0-0.115,0.01-0.226,0.03s-0.196,0.03-0.256,0.03c-0.662,0-1.188-0.235-1.58-0.707   c-0.391-0.471-0.587-1.098-0.587-1.88c0-1.725,0.883-2.838,2.648-3.34c0.602-0.161,1.484-0.241,2.648-0.241V12.889z" fill="#607D8B"/><path d="M13.738,22.295c-1.671,0-3.068-0.528-4.152-1.569c-1.09-1.046-1.644-2.529-1.644-4.408   c0-1.481,0.375-2.771,1.113-3.835c0.733-1.057,1.747-1.865,3.013-2.402c1.119-0.477,2.51-0.823,4.134-1.028   c0.184-0.021,0.396-0.042,0.644-0.066c0.287-0.036,0.519,0.176,0.545,0.45c0.026,0.275-0.175,0.519-0.45,0.545   c-0.242,0.023-0.449,0.044-0.621,0.064c-1.525,0.193-2.827,0.515-3.862,0.956c-1.09,0.462-1.959,1.152-2.583,2.052   c-0.62,0.893-0.934,1.992-0.934,3.265c0,1.618,0.437,2.824,1.336,3.686c0.904,0.869,2.036,1.291,3.46,1.291   c0.95,0,1.752-0.095,2.386-0.281c0.994-0.276,2.029-0.998,3.083-2.145c0.099-0.107,0.241-0.174,0.385-0.162   c0.146,0.005,0.282,0.073,0.374,0.187c0.084,0.105,0.232,0.31,0.443,0.616c0.183,0.264,0.314,0.444,0.396,0.535   c0.089,0.1,0.236,0.256,0.441,0.471c0.184,0.193,0.396,0.393,0.635,0.601c0.197,0.063,0.274,0.006,0.313-0.023   c0.115-0.1,1.017-0.881,2.68-2.324c0.068-0.044,0.066-0.106-0.028-0.249c-0.304-0.398-0.537-0.706-0.678-0.898   c-0.171-0.232-0.337-0.581-0.506-1.065c-0.168-0.482-0.253-1.018-0.253-1.593V7.683c0-0.078-0.01-0.326-0.03-0.744   c-0.026-0.557-0.062-0.696-0.068-0.718c-0.042-0.138-0.105-0.384-0.189-0.741c-0.086-0.366-0.168-0.558-0.222-0.654   c-0.091-0.163-0.215-0.351-0.371-0.562c-0.154-0.209-0.324-0.406-0.508-0.59c-1.168-1.076-2.855-1.629-5.002-1.629h-0.752   c-1.661,0.094-3.153,0.554-4.407,1.364c-0.765,0.495-1.358,1.168-1.763,2c-0.236,0.486-0.415,1.04-0.53,1.645L9.544,7.172   C9.535,7.174,9.565,7.202,9.67,7.227l3.309,0.4c0.051-0.025,0.109-0.089,0.148-0.282c0.168-0.769,0.545-1.373,1.123-1.807   c0.556-0.416,1.218-0.662,1.97-0.73l0.286-0.002c1.071,0,1.877,0.375,2.396,1.116c0.353,0.554,0.512,1.461,0.512,2.874v0.512   c0,0.276-0.224,0.5-0.5,0.5s-0.5-0.224-0.5-0.5V8.796c0-1.548-0.215-2.118-0.343-2.319c-0.313-0.446-0.828-0.671-1.564-0.671   h-0.241c-0.527,0.05-1.005,0.225-1.415,0.532c-0.386,0.29-0.629,0.686-0.745,1.211c-0.16,0.803-0.694,1.02-0.998,1.077   c-0.05,0.009-0.102,0.011-0.152,0.005L9.495,8.21C8.631,8.009,8.544,7.417,8.544,7.172c0-0.101,0.015-0.209,0.045-0.332   c0.126-0.665,0.332-1.302,0.607-1.868c0.485-0.999,1.198-1.808,2.119-2.403c1.401-0.906,3.058-1.418,4.922-1.523l0.781-0.001   c2.406,0,4.321,0.642,5.694,1.908c0.233,0.232,0.437,0.469,0.62,0.718c0.185,0.251,0.331,0.474,0.44,0.67   c0.125,0.224,0.229,0.522,0.321,0.911c0.076,0.327,0.133,0.551,0.171,0.675c0.036,0.117,0.083,0.334,0.112,0.966   c0.021,0.444,0.031,0.708,0.031,0.791v7.282c0,0.463,0.066,0.888,0.198,1.264c0.166,0.476,0.291,0.698,0.367,0.801   c0.14,0.189,0.369,0.494,0.687,0.911c0.196,0.293,0.283,0.542,0.283,0.785c0,0.224-0.077,0.548-0.44,0.821   c-1.639,1.423-2.542,2.206-2.683,2.326c-0.293,0.222-0.749,0.408-1.388,0.144c-0.049-0.02-0.095-0.048-0.136-0.083   c-0.294-0.252-0.553-0.495-0.773-0.727c-0.216-0.226-0.37-0.391-0.462-0.494c-0.097-0.107-0.256-0.319-0.475-0.635   c-0.022-0.032-0.043-0.063-0.064-0.093c-1.043,1.035-2.091,1.704-3.122,1.99C15.681,22.187,14.783,22.295,13.738,22.295z    M15.784,18.804c-0.815,0-1.476-0.299-1.964-0.888c-0.466-0.562-0.702-1.301-0.702-2.2c0-1.94,1.042-3.261,3.011-3.821   c0.657-0.175,1.565-0.26,2.785-0.26c0.276,0,0.5,0.224,0.5,0.5s-0.224,0.5-0.5,0.5c-1.115,0-1.963,0.075-2.519,0.224   c-1.551,0.441-2.277,1.349-2.277,2.857c0,0.659,0.159,1.184,0.472,1.561c0.294,0.354,0.685,0.526,1.195,0.526   c0.039,0,0.095-0.009,0.167-0.022c0.096-0.017,0.173-0.028,0.23-0.033c0.688-0.192,1.211-0.639,1.599-1.365   c0.204-0.353,0.354-0.729,0.452-1.132c0.102-0.416,0.158-0.751,0.167-0.998c0.01-0.276,0.263-0.514,0.518-0.481   c0.276,0.01,0.492,0.242,0.481,0.518c-0.012,0.319-0.075,0.711-0.194,1.199c-0.121,0.495-0.306,0.96-0.55,1.381   c-0.52,0.971-1.283,1.601-2.261,1.858c-0.042,0.011-0.084,0.016-0.127,0.016c-0.021,0.002-0.07,0.01-0.136,0.022   C15.98,18.793,15.865,18.804,15.784,18.804z" fill="#455A64"/><path d="M27.311,24.872c-0.071,0.035-0.653,0.283-0.742,0.318c-3.372,1.289-6.789,1.933-10.249,1.933   c-5.191,0-9.993-1.28-14.407-3.84c-0.194-0.124-0.424,0.362-0.318,0.45c1.942,1.748,4.14,3.103,6.594,4.065   c2.455,0.962,5.059,1.443,7.813,1.443c1.783,0,3.611-0.247,5.482-0.741c1.872-0.495,3.567-1.192,5.085-2.092   c0.495-0.3,0.9-0.565,1.218-0.794c0.247-0.177,0.296-0.371,0.146-0.583C27.783,24.819,27.575,24.766,27.311,24.872z" fill="#FFB74D"/><path d="M16.002,29.742c-2.804,0-5.495-0.497-7.996-1.478c-2.498-0.979-4.768-2.378-6.746-4.159   c-0.205-0.185-0.222-0.501-0.037-0.706c0.185-0.206,0.501-0.221,0.706-0.037c1.889,1.7,4.056,3.036,6.442,3.971   c3.925,1.539,8.347,1.908,12.985,0.684c1.819-0.481,3.487-1.167,4.958-2.039c0.477-0.289,0.871-0.546,1.181-0.77   c0.223-0.163,0.536-0.112,0.698,0.113c0.162,0.224,0.111,0.536-0.113,0.698c-0.326,0.236-0.743,0.508-1.251,0.816   c-1.554,0.922-3.308,1.644-5.216,2.148C19.708,29.487,17.82,29.742,16.002,29.742z" fill="#455A64"/><path d="M30.462,23.071c-0.159-0.194-0.635-0.327-1.43-0.397c-0.159-0.035-0.327-0.044-0.503-0.026   c-0.636,0.018-1.289,0.115-1.96,0.292c-0.406,0.106-0.83,0.309-1.271,0.609c-0.071,0.071-0.124,0.141-0.159,0.212   c-0.018,0.035-0.026,0.062-0.026,0.08c-0.018,0.035-0.009,0.07,0.026,0.106c0.036,0.035,0.106,0.053,0.212,0.053   c0.371-0.053,0.777-0.106,1.218-0.159c0.406-0.036,0.759-0.053,1.06-0.053c0.812,0,1.307,0.106,1.483,0.318   c0.071,0.088,0.106,0.229,0.106,0.424c0,0.6-0.327,1.668-0.98,3.205c-0.053,0.141-0.026,0.238,0.08,0.291   c0.035,0.018,0.071,0.027,0.106,0.027c0.071,0,0.15-0.036,0.238-0.106c0.601-0.512,1.068-1.188,1.404-2.026   c0.335-0.838,0.503-1.567,0.503-2.185v-0.186C30.568,23.336,30.533,23.177,30.462,23.071z" fill="#FFB74D"/><path d="M28.661,28.444c-0.141,0-0.282-0.06-0.38-0.176c-0.179-0.21-0.154-0.525,0.056-0.705   c0.535-0.457,0.96-1.073,1.264-1.832c0.31-0.775,0.467-1.447,0.467-1.999v-0.186c0-0.063-0.004-0.109-0.009-0.141   c-0.268-0.108-1.016-0.275-1.516-0.26c-0.594,0.016-1.215,0.109-1.846,0.275c-0.351,0.092-0.726,0.273-1.117,0.539   c-0.228,0.155-0.539,0.096-0.695-0.132c-0.155-0.229-0.096-0.54,0.132-0.695c0.486-0.331,0.966-0.559,1.426-0.679   c0.704-0.186,1.401-0.289,2.073-0.308c0.418-0.002,1.959,0.148,2.334,0.607c0.157,0.23,0.219,0.477,0.219,0.793v0.186   c0,0.679-0.181,1.477-0.539,2.37c-0.364,0.911-0.884,1.658-1.544,2.221C28.892,28.405,28.776,28.444,28.661,28.444z" fill="#455A64"/></g></svg>