<?xml version="1.0" ?><!DOCTYPE svg  PUBLIC '-//W3C//DTD SVG 1.1//EN'  'http://www.w3.org/Graphics/SVG/1.1/DTD/svg11.dtd'><svg enable-background="new 0 0 32 32" height="32px" version="1.1" viewBox="0 0 32 32" width="32px" xml:space="preserve" xmlns="http://www.w3.org/2000/svg" xmlns:xlink="http://www.w3.org/1999/xlink"><g id="Behance_2_"><g id="Behance_1_"><path d="M14.272,16.748c0.755-0.875,1.228-2.001,1.228-3.248c0-2.761-2.238-5-5-5h-9v7v3v7H11c2.762,0,5-2.239,5-5    C16,18.997,15.323,17.665,14.272,16.748z M4.5,11.5H10c1.104,0,2,0.896,2,2s-0.896,2-2,2H4.5V11.5z M10.5,22.5h-6v-4H10h0.5    c1.104,0,2,0.896,2,2S11.604,22.5,10.5,22.5z" fill="#FFFFFF"/><path d="M25.988,21.5c-0.456,0.604-1.173,1-1.988,1c-1.381,0-2.5-1.119-2.5-2.5v-0.5h8.975    c0.013-0.166,0.025-0.331,0.025-0.5v-1c0-3.59-2.91-6.5-6.5-6.5s-6.5,2.91-6.5,6.5v1c0,3.59,2.91,6.5,6.5,6.5    c2.704,0,5.021-1.651,6-4H25.988z M21.5,17c0-1.381,1.119-2.5,2.5-2.5s2.5,1.119,2.5,2.5v0.5h-5V17z" fill="#FFFFFF"/><path d="M24.6,12.8c-3.59,0-6.5,2.91-6.5,6.5v1c0,0.713,0.119,1.398,0.332,2.04c1.137,1.891,3.201,3.16,5.568,3.16    c2.704,0,5.021-1.651,6-4h-4.012c-0.456,0.604-1.173,1-1.988,1c-1.381,0-2.5-1.119-2.5-2.5v-0.5h8.975    c0.013-0.166,0.025-0.331,0.025-0.5v-1c0-0.713-0.119-1.398-0.331-2.04C29.032,14.069,26.967,12.8,24.6,12.8z M26.5,17.5h-5V17    c0-1.381,1.119-2.5,2.5-2.5s2.5,1.119,2.5,2.5V17.5z" fill="#73C2E6"/><path d="M15.143,17.739c-0.248-0.366-0.537-0.701-0.87-0.992c0.755-0.875,1.228-2.001,1.228-3.248    c0-0.243-0.038-0.476-0.071-0.709C14.539,11.141,12.719,10,10.756,10H4c-1.104,0-2,0.896-2,2v5v3v5.5h9c2.762,0,5-2.239,5-5    c0-0.27-0.029-0.532-0.07-0.789C15.636,19.155,15.025,17.914,15.143,17.739z M4.5,11.5H10c1.104,0,2,0.896,2,2s-0.896,2-2,2H4.5    V11.5z M10.5,22.5h-6v-4H10h0.5c1.104,0,2,0.896,2,2S11.604,22.5,10.5,22.5z" fill="#73C2E6"/><rect fill="#80D8FF" height="2" width="7" x="20.5" y="7.5"/></g><g id="Behance"><path d="M11,26H1.5C1.224,26,1,25.776,1,25.5v-17C1,8.224,1.224,8,1.5,8S2,8.224,2,8.5V25h9    c2.481,0,4.5-2.019,4.5-4.5c0-1.282-0.567-2.513-1.557-3.375c-0.207-0.181-0.229-0.495-0.05-0.704    C14.617,15.582,15,14.572,15,13.5c0-2.481-2.019-4.5-4.5-4.5h-7C3.224,9,3,8.776,3,8.5S3.224,8,3.5,8h7c3.032,0,5.5,2.467,5.5,5.5    c0,1.14-0.371,2.26-1.053,3.2c0.992,1.026,1.553,2.386,1.553,3.8C16.5,23.533,14.032,26,11,26z M10.5,23h-6    C4.224,23,4,22.776,4,22.5v-4C4,18.224,4.224,18,4.5,18h6c1.379,0,2.5,1.122,2.5,2.5S11.879,23,10.5,23z M5,22h5.5    c0.827,0,1.5-0.673,1.5-1.5S11.327,19,10.5,19H5V22z M10,16H4.5C4.224,16,4,15.776,4,15.5v-4C4,11.224,4.224,11,4.5,11H10    c1.379,0,2.5,1.122,2.5,2.5S11.379,16,10,16z M5,15h5c0.827,0,1.5-0.673,1.5-1.5S10.827,12,10,12H5V15z" fill="#455A64"/><path d="M24,26c-3.859,0-7-3.14-7-7v-1c0-1.816,0.692-3.538,1.95-4.847c0.191-0.2,0.508-0.204,0.707-0.015    c0.199,0.191,0.205,0.508,0.014,0.707C18.594,14.968,18,16.443,18,18v1c0,3.309,2.691,6,6,6c2.169,0,4.135-1.155,5.196-3h-2.973    c-0.569,0.639-1.367,1-2.224,1c-1.654,0-3-1.346-3-3v-0.5c0-0.276,0.224-0.5,0.5-0.5H30v-1c0-3.309-2.691-6-6-6    c-0.8,0-1.576,0.155-2.308,0.459c-0.251,0.107-0.548-0.014-0.654-0.269c-0.105-0.255,0.015-0.548,0.27-0.654    C22.162,11.181,23.067,11,24,11c3.859,0,7,3.14,7,7v1c0,0.182-0.014,0.36-0.026,0.538C30.953,19.799,30.736,20,30.475,20H22    c0,1.103,0.897,2,2,2c0.626,0,1.205-0.292,1.589-0.801C25.684,21.074,25.831,21,25.988,21H30c0.167,0,0.323,0.083,0.416,0.223    s0.109,0.315,0.046,0.47C29.37,24.309,26.834,26,24,26z M26.5,18h-5c-0.276,0-0.5-0.224-0.5-0.5V17c0-1.654,1.346-3,3-3    s3,1.346,3,3v0.5C27,17.776,26.776,18,26.5,18z M22,17h4c0-1.103-0.897-2-2-2S22,15.897,22,17z" fill="#455A64"/><path d="M27.5,10h-7C20.224,10,20,9.776,20,9.5v-2C20,7.224,20.224,7,20.5,7h7C27.776,7,28,7.224,28,7.5v2    C28,9.776,27.776,10,27.5,10z M21,9h6V8h-6V9z" fill="#455A64"/></g></g></svg>