<?xml version="1.0" ?><!DOCTYPE svg  PUBLIC '-//W3C//DTD SVG 1.1//EN'  'http://www.w3.org/Graphics/SVG/1.1/DTD/svg11.dtd'><svg enable-background="new 0 0 32 32" height="32px" version="1.1" viewBox="0 0 32 32" width="32px" xml:space="preserve" xmlns="http://www.w3.org/2000/svg" xmlns:xlink="http://www.w3.org/1999/xlink"><g id="Pinterest"><circle cx="16" cy="16" fill="#FFFFFF" r="14.5"/><path d="M30.5,16c0-1.339-0.196-2.631-0.536-3.862C27.83,6.787,22.612,3,16.5,3C8.492,3,2,9.492,2,17.5   c0,1.339,0.196,2.631,0.536,3.862C4.67,26.713,9.888,30.5,16,30.5C24.008,30.5,30.5,24.008,30.5,16z" fill="#FF8A80"/><path d="M16.492,6.5c-5.731,0-8.621,4.109-8.621,7.535c0,1.546,0.438,2.964,1.357,3.871h1.828   c0.051-0.203,0.104-0.413,0.136-0.533c0.08-0.303,0.049-0.409-0.174-0.672c-0.486-0.573-0.796-1.315-0.796-2.365   c0-3.048,2.28-5.777,5.938-5.777c3.239,0,5.019,1.979,5.019,4.623c0,3.478-1.539,6.413-3.824,6.413   c-1.262,0-2.206-1.043-1.903-2.323c0.362-1.528,1.064-3.177,1.064-4.28c0-0.987-0.529-1.811-1.627-1.811   c-1.29,0-2.326,1.334-2.326,3.122c0,1.139,0.385,1.909,0.385,1.909s-1.319,5.594-1.551,6.573c-0.461,1.951-0.069,4.343-0.037,4.584   c0.02,0.143,0.204,0.177,0.287,0.069c0.119-0.156,1.655-2.052,2.178-3.948c0.147-0.536,0.849-3.315,0.849-3.315   c0.419,0.8,1.644,1.503,2.946,1.503c3.878,0,6.509-3.535,6.509-8.267C24.129,9.832,21.098,6.5,16.492,6.5z" fill="#FFFFFF"/><path d="M11.343,27.977c-0.256-0.069-0.443-0.283-0.478-0.545c-0.158-1.082-0.354-3.072,0.046-4.763l1.436-6.086   c0.063-0.269,0.333-0.436,0.602-0.372s0.435,0.333,0.371,0.602l-1.436,6.086c-0.278,1.181-0.232,2.551-0.132,3.559   c0.559-0.793,1.277-1.961,1.591-3.101c0.147-0.535,0.847-3.305,0.847-3.305c0.05-0.201,0.22-0.35,0.426-0.375   c0.203-0.026,0.404,0.081,0.502,0.265c0.317,0.607,1.341,1.235,2.503,1.235c3.538,0,6.009-3.194,6.009-7.767   c0-3.151-2.67-6.41-7.137-6.41c-5.602,0-8.121,4.114-8.121,7.035c0,1.621,0.491,2.927,1.384,3.677   c0.098,0.082,0.202,0.064,0.242,0.053c0.05-0.014,0.139-0.053,0.178-0.166l0.248-0.708c0.029-0.085-0.023-0.179-0.048-0.215   c-0.438-0.655-0.652-1.421-0.652-2.341c0-3.579,2.768-6.277,6.438-6.277c3.353,0,5.519,2.011,5.519,5.123   c0,3.941-1.859,6.913-4.324,6.913c-0.789,0-1.507-0.334-1.968-0.917c-0.447-0.565-0.597-1.283-0.422-2.021   c0.134-0.564,0.313-1.144,0.486-1.707c0.29-0.941,0.564-1.83,0.564-2.458c0-0.394-0.109-1.311-1.127-1.311   c-1.024,0-1.826,1.152-1.826,2.622c0,0.276-0.224,0.5-0.5,0.5s-0.5-0.224-0.5-0.5c0-2.031,1.241-3.622,2.826-3.622   c1.272,0,2.127,0.929,2.127,2.311c0,0.779-0.296,1.738-0.609,2.753c-0.167,0.542-0.34,1.1-0.469,1.643   c-0.103,0.435-0.02,0.85,0.233,1.17c0.271,0.342,0.702,0.538,1.184,0.538c1.864,0,3.324-2.597,3.324-5.913   c0-2.543-1.731-4.123-4.519-4.123c-3.532,0-5.438,2.719-5.438,5.277c0,0.715,0.158,1.3,0.483,1.786   c0.228,0.34,0.285,0.741,0.161,1.1l-0.248,0.708c-0.136,0.391-0.457,0.69-0.857,0.8c-0.404,0.11-0.833,0.015-1.15-0.252   c-1.122-0.943-1.74-2.521-1.74-4.442c0-3.95,3.412-8.035,9.121-8.035c5.093,0,8.137,3.768,8.137,7.41   c0,5.08-2.947,8.767-7.009,8.767c-1.003,0-2.005-0.368-2.698-0.944c-0.219,0.862-0.523,2.056-0.614,2.389   c-0.455,1.649-1.597,3.268-2.237,4.086C11.921,27.901,11.72,28,11.515,28C11.457,28,11.399,27.992,11.343,27.977z" fill="#455A64"/><path d="M15.737,31C7.474,31,1,24.411,1,16c0-3.629,1.237-7.111,3.485-9.804c0.178-0.213,0.493-0.24,0.704-0.063   C5.401,6.31,5.43,6.625,5.253,6.837C3.155,9.35,2,12.604,2,16c0,7.851,6.034,14,13.737,14C23.602,30,30,23.72,30,16   S23.602,2,15.737,2c-2.44,0-4.813,0.62-6.858,1.792C8.641,3.925,8.334,3.847,8.197,3.606C8.06,3.366,8.143,3.061,8.383,2.923   C10.579,1.665,13.122,1,15.737,1C24.153,1,31,7.729,31,16S24.153,31,15.737,31z" fill="#455A64"/><g><g><g><g><g><g><path d="M7.543,4.552c0,0.275-0.225,0.5-0.5,0.5l0,0c-0.275,0-0.5-0.225-0.5-0.5l0,0         c0-0.275,0.225-0.5,0.5-0.5l0,0C7.318,4.052,7.543,4.276,7.543,4.552L7.543,4.552z" fill="#455A64"/></g></g></g></g></g></g></g></svg>