<?xml version="1.0" ?><!DOCTYPE svg  PUBLIC '-//W3C//DTD SVG 1.1//EN'  'http://www.w3.org/Graphics/SVG/1.1/DTD/svg11.dtd'><svg enable-background="new 0 0 32 32" height="32px" version="1.1" viewBox="0 0 32 32" width="32px" xml:space="preserve" xmlns="http://www.w3.org/2000/svg" xmlns:xlink="http://www.w3.org/1999/xlink"><g id="Spotify"><g id="telegram_2_"><circle cx="16" cy="16" fill="#FFFFFF" r="14.5"/><path d="M30.5,16c0-1.339-0.196-2.631-0.536-3.862C27.83,6.787,22.612,3,16.5,3C8.492,3,2,9.492,2,17.5    c0,1.339,0.196,2.631,0.536,3.862C4.67,26.713,9.888,30.5,16,30.5C24.008,30.5,30.5,24.008,30.5,16z" fill="#1DE9B6"/><path d="M15.737,31C7.474,31,1,24.411,1,16c0-3.629,1.238-7.111,3.485-9.804c0.177-0.212,0.492-0.241,0.704-0.063    C5.401,6.31,5.43,6.625,5.253,6.837C3.155,9.35,2,12.604,2,16c0,7.851,6.034,14,13.737,14C23.602,30,30,23.72,30,16    S23.602,2,15.737,2c-2.441,0-4.812,0.62-6.857,1.791C8.642,3.928,8.335,3.846,8.198,3.606C8.06,3.366,8.143,3.061,8.383,2.924    C10.579,1.665,13.122,1,15.737,1C24.153,1,31,7.729,31,16S24.153,31,15.737,31z" fill="#455A64"/><g><g><g><g><g><g><path d="M7.543,4.552c0,0.275-0.225,0.5-0.5,0.5l0,0c-0.275,0-0.5-0.225-0.5-0.5l0,0          c0-0.275,0.225-0.5,0.5-0.5l0,0C7.318,4.052,7.543,4.276,7.543,4.552L7.543,4.552z" fill="#455A64"/></g></g></g></g></g></g></g><g><path d="M26.44,14.042c0.363-0.652,0.145-1.522-0.507-1.885c-5.365-3.19-13.848-3.48-18.995-1.958    c-0.652,0.217-1.087,0.942-0.87,1.667c0.218,0.652,0.942,1.087,1.667,0.87c4.423-1.377,12.18-1.087,16.82,1.667    C25.208,14.768,26.078,14.55,26.44,14.042z" fill="#FFFFFF"/><path d="M8.243,19.625c-0.435,0.145-0.798,0.58-0.653,1.087c0.145,0.435,0.58,0.797,1.088,0.653    c5.075-1.16,9.352-0.725,12.76,1.377c0.435,0.29,0.942,0.145,1.232-0.29c0.218-0.435,0.145-1.015-0.362-1.232    C18.538,18.9,13.752,18.393,8.243,19.625z" fill="#FFFFFF"/><path d="M24.41,18.465c0.362-0.507,0.145-1.232-0.29-1.45c-4.495-2.755-11.02-3.553-16.313-1.958    c-0.58,0.145-0.87,0.797-0.725,1.377s0.797,0.87,1.377,0.725c4.567-1.45,10.513-0.725,14.428,1.667    C23.395,19.19,24.047,18.973,24.41,18.465z" fill="#FFFFFF"/></g><g><path d="M25.275,15.084c-0.333,0-0.667-0.078-0.963-0.242c-4.461-2.649-12.092-2.979-16.429-1.627    c-0.948,0.285-1.977-0.249-2.29-1.189c-0.087-0.262,0.054-0.545,0.316-0.632c0.261-0.087,0.545,0.054,0.632,0.316    c0.127,0.378,0.566,0.695,1.049,0.549c4.518-1.406,12.389-1.151,17.22,1.716c0.421,0.234,1.008,0.076,1.223-0.223    c0.161-0.224,0.473-0.277,0.697-0.116c0.225,0.16,0.277,0.473,0.116,0.697C26.501,14.816,25.891,15.084,25.275,15.084z" fill="#455A64"/><path d="M21.911,23.391c-0.256,0-0.516-0.076-0.751-0.232c-3.239-1.998-7.406-2.44-12.371-1.306    C8,22.076,7.331,21.517,7.116,20.871c-0.087-0.262,0.054-0.545,0.316-0.632c0.264-0.087,0.545,0.054,0.632,0.316    c0.055,0.164,0.229,0.403,0.477,0.33c5.254-1.202,9.673-0.717,13.159,1.433c0.106,0.07,0.198,0.089,0.287,0.067    c0.099-0.024,0.194-0.099,0.267-0.209c0.152-0.23,0.462-0.292,0.693-0.139c0.23,0.153,0.292,0.463,0.139,0.693    C22.799,23.16,22.36,23.391,21.911,23.391z" fill="#455A64"/><path d="M23.439,19.504c-0.295,0-0.587-0.087-0.842-0.27c-3.818-2.332-9.582-2.997-13.986-1.598    c-0.919,0.23-1.808-0.258-2.014-1.081c-0.067-0.268,0.096-0.539,0.364-0.606c0.266-0.067,0.539,0.095,0.606,0.364    c0.077,0.308,0.471,0.438,0.771,0.361c4.63-1.473,10.733-0.766,14.81,1.726c0.31,0.22,0.664,0.042,0.855-0.227    c0.161-0.224,0.473-0.277,0.697-0.116c0.225,0.161,0.277,0.473,0.116,0.697C24.47,19.242,23.951,19.504,23.439,19.504z" fill="#455A64"/></g></g></svg>